<svg width="24" height="24" viewBox="0 0 24 24" fill="none" xmlns="http://www.w3.org/2000/svg">
<path d="M9.5 8.5L8.5 8L7.5 8.5L6.5 9L5.5 10L5 12L5.5 14V14.5L6 16L7.5 18.5L9 19.5H10.5L11.5 19L12.5 19.5H13.5H14.5L15.5 18.5L16.5 17L17 15.5L17.5 13.5V12.5V11L17 10L16 9L14.5 8L13.5 8.5L11.5 9L9.5 8.5Z" fill="#A9BDD3"/>
<path d="M11.4233 7.53743C10.9454 7.71608 10.4464 7.86461 9.9339 7.76432C8.70759 7.52444 8.10815 5.74148 7.93512 4.63864C7.90225 4.42938 7.81078 4.14301 8.01943 4.00722C8.93976 3.95485 10.3773 4.18549 11.1362 4.76495C11.7376 5.22417 11.8508 5.67537 11.9524 6.37219C12.323 5.85471 12.755 5.41775 13.3433 5.18083C13.8147 4.99094 13.8889 5.40485 13.7249 5.54906C13.6314 5.63127 13.4698 5.66812 13.3572 5.71977C12.367 6.17417 11.845 7.47443 11.7034 8.51586C12.158 8.44125 12.5889 8.26459 13.0291 8.13254C15.4344 7.41091 17.1255 8.67074 17.7962 11.0995C18.2082 12.5915 17.9516 14.1614 17.4196 15.5825C16.8062 17.2213 15.5018 19.4189 13.8333 19.9119C12.6076 20.2325 12.5549 19.5874 11.8185 19.421C11.3965 19.3257 11.0261 19.4223 10.6659 19.6646C8.61434 21.0447 6.49509 17.7613 5.78112 16.1625C4.6848 13.7077 4.46665 10.0094 6.96317 8.37885C8.39248 7.44534 9.79257 8.18657 11.2079 8.51586C11.2665 8.18523 11.337 7.86155 11.4233 7.53743ZM8.40507 4.51517C8.68204 6.15621 9.32 7.87328 11.2079 7.09715C10.9768 6.89243 10.1905 6.33599 10.106 6.22124C10.0644 6.07828 10.1066 5.93079 10.2565 5.88617C10.5065 5.81173 11.2676 6.48257 11.4595 6.6456C11.5748 5.02428 10.0207 4.61535 8.74657 4.52114C8.63263 4.51271 8.51922 4.50777 8.40507 4.51517ZM14.3211 8.42921C13.744 8.40531 13.1994 8.59181 12.6569 8.77102C11.5134 9.14865 11.1848 9.05509 10.0336 8.69464C8.84132 8.32129 7.74047 8.22251 6.74929 9.17225C5.92723 9.95995 5.48994 11.2644 5.4456 12.4076C5.36677 14.4389 6.34977 16.7891 7.67141 18.2633C8.0191 18.6511 8.42049 19.0601 8.87955 19.2991C9.73884 19.707 9.92916 19.4675 10.5976 19.1011C11.4145 18.6534 12.0148 18.901 12.7062 19.3299C13.3289 19.716 14.065 19.3572 14.5843 18.9535C16.6934 17.3142 18.1677 13.383 17.1935 10.7655C16.7727 9.63476 15.6258 8.21268 14.3211 8.42921Z" fill="#113A58"/>
<path d="M10.1246 9.7731C10.0634 9.60871 9.95722 9.38392 10.0183 9.18823C10.1631 8.72468 10.358 9.23922 10.4249 9.43314C10.6712 10.1476 11.2892 10.617 11.8017 10.3668C12.4727 10.0392 12.6235 9.09294 12.7803 9.02442L12.7897 9.02044C13.0875 9.01463 13.0134 9.42428 12.9045 9.69337C12.2106 11.4078 10.8354 11.4359 10.1246 9.7731Z" fill="#113A58"/>
<path d="M14.6272 15.9991C14.4197 16.0112 14.2238 15.9 14.3111 15.7281C14.3757 15.6011 14.5523 15.4471 14.6466 15.3158C15.4423 14.2081 16.0503 12.6187 14.6377 11.6297C14.4644 11.5084 13.6328 11.23 14.189 11.0031C14.4029 10.9784 14.6172 11.108 14.7752 11.1995C16.3484 12.1105 16.1985 13.6763 15.4808 14.9283C15.354 15.1495 14.9025 15.9166 14.6272 15.9991Z" fill="#113A58"/>
<path d="M13.3227 17C12.5822 16.9072 13.2944 16.0698 13.6884 16C14.421 16.0257 13.6788 16.9346 13.3227 17Z" fill="#113A58"/>
</svg>
