<svg width="20" height="20" viewBox="0 0 20 20" fill="none" xmlns="http://www.w3.org/2000/svg">
<path d="M15 1.66669V3.33335M5 1.66669V3.33335" stroke="#113A58" stroke-width="1.25" stroke-linecap="round" stroke-linejoin="round"/>
<path d="M2.08334 10.2027C2.08334 6.57162 2.08334 4.75607 3.12678 3.62803C4.17021 2.5 5.84959 2.5 9.20834 2.5H10.7917C14.1504 2.5 15.8298 2.5 16.8733 3.62803C17.9167 4.75607 17.9167 6.57162 17.9167 10.2027V10.6307C17.9167 14.2617 17.9167 16.0773 16.8733 17.2053C15.8298 18.3333 14.1504 18.3333 10.7917 18.3333H9.20834C5.84959 18.3333 4.17021 18.3333 3.12678 17.2053C2.08334 16.0773 2.08334 14.2617 2.08334 10.6307V10.2027Z" stroke="#113A58" stroke-width="1.25" stroke-linecap="round" stroke-linejoin="round"/>
<path d="M2.5 6.66669H17.5" stroke="#113A58" stroke-width="1.25" stroke-linecap="round" stroke-linejoin="round"/>
</svg>
