<svg width="24" height="24" viewBox="0 0 24 24" fill="none" xmlns="http://www.w3.org/2000/svg">
<path d="M7.5 18.5L10.5 20L9.5 19L9 18V16.5L9.5 15L10 14L10.5 14.5L11 13.5L11.5 12H12V12.5L12.5 13.5L13 14.5V15.5L13.5 15L14 16V17L14.5 16.5L15 17V18L14.5 19L13.5 20L15.5 19L16.5 18.5L18 16.5L18.5 15V14L18 13L17.5 13.5L16 14.5V14L16.5 12.5V11.5V10.5L16 9.5L15.5 8.5V9L14.5 10.5L14 11V10.5V9.5V7.5L13 5.5L12 4.5V5.5L11.5 6.5L11 7L10 8.5L9.5 10.5V9.5L9 8.5L8 8L8.5 9L8 10.5L7.5 11.5V12.5L8 14.5L7.5 14L6.5 13.5L6 13L5.5 15L6 17L7.5 18.5Z" fill="#A9BDD3"/>
<path d="M9.588 8.98456C9.65836 8.85387 9.70744 8.70401 9.76734 8.56746C10.0908 7.82993 10.3567 7.61632 10.8589 7.08532C11.4585 6.45134 11.7096 5.55509 11.6021 4.69901C11.5657 4.40919 11.3577 4.06889 11.6238 3.90439C11.9945 3.87158 12.8767 4.99498 13.1179 5.30332C14.1675 6.64507 14.7034 8.52387 14.3073 10.2078C14.272 10.3583 14.2196 10.5133 14.2018 10.6666L14.1879 10.7797C14.261 10.6661 14.3611 10.5741 14.4479 10.4713C14.976 9.84537 15.2605 9.03584 15.0308 8.22443C15.1666 7.79407 15.4261 8.06501 15.606 8.28978C16.9271 9.94104 17.1684 12.1784 16.2391 14.0924C16.8124 13.8373 17.3361 13.4054 17.6535 12.858C18.1525 11.9972 18.3485 12.859 18.4871 13.4144C19.1806 16.1934 17.3488 18.9895 14.6961 19.8451C14.3495 19.9569 13.999 19.9869 13.6495 20.0739C13.0827 20.0832 12.5134 20.0742 11.9463 20.0744L11.0412 20.0742C7.56792 20.0724 4.74966 16.9979 5.50434 13.4874C5.54658 13.2909 5.67502 12.5999 5.88717 12.5152C6.14391 12.4127 6.31889 12.8053 6.43439 12.962C6.73191 13.3657 7.11778 13.7917 7.57631 14.0095C7.17145 12.8181 7.09031 11.7863 7.64991 10.5892C8.09086 9.64582 8.33527 8.9366 7.81392 7.93395C7.73105 7.77457 7.55362 7.56753 7.77717 7.42217C8.22717 7.12953 9.39745 8.66215 9.588 8.98456ZM12.0822 4.82159C12.0924 5.76828 11.8998 6.67015 11.2107 7.38129C11.0524 7.5446 10.8748 7.68546 10.7272 7.85979C9.97036 8.75379 9.61931 10.1977 9.90975 11.3508C9.95044 11.5122 10.0353 11.6876 10.048 11.852C10.0632 12.0484 9.81314 12.1681 9.67284 12.0246C9.43912 11.7856 9.34312 10.6514 9.36567 10.2313C9.37505 10.0559 9.42216 9.85629 9.40041 9.68323C9.34613 9.25151 8.76502 8.56929 8.43698 8.22443C8.68312 9.44084 8.5282 9.74562 8.05355 10.824C7.59698 11.8612 7.60102 13.0276 8.08045 14.0519C8.1457 14.1913 8.47744 14.6275 8.12705 14.7041C7.51378 14.8379 6.3728 13.6367 6.0428 13.2008C5.97741 13.5187 5.8987 13.8267 5.86341 14.1505C5.63536 16.2412 6.89986 18.2774 8.79286 19.1386C9.10069 19.2786 9.41423 19.3746 9.73406 19.4813C8.74045 18.5856 8.40333 17.1246 9.01144 15.9186C9.37078 15.206 9.61636 14.9547 9.54937 14.0377C9.53733 13.8728 9.44255 13.4979 9.72923 13.5117C9.99614 13.5244 10.2958 13.8687 10.4355 14.0924C10.664 13.3237 11.2259 12.6615 11.3498 11.938C11.3784 11.7714 11.3617 11.5591 11.4458 11.411C11.7821 11.1153 12.1919 12.0741 12.3062 12.2952C12.7786 13.2084 13.1093 14.0763 13.0703 15.1228C13.2535 14.9299 13.3171 14.692 13.428 14.5755C13.7534 14.2337 14.1038 15.571 14.1329 15.7005C14.2023 16.0098 14.2136 16.2956 14.1879 16.6092C14.4274 16.3422 14.6859 15.6523 14.9685 16.4209C15.3847 17.553 15.1787 18.5884 14.2881 19.4416L14.2462 19.4813C16.995 18.7879 18.7818 16.0277 17.9529 13.2423C17.468 13.9475 16.7962 14.5111 15.932 14.6762C15.3857 14.7806 15.5745 14.3614 15.734 14.0754C16.5058 12.6918 16.6004 10.3751 15.5803 9.07348C15.3727 10.0731 14.8732 10.8899 14.0043 11.4644C13.8946 11.5369 13.777 11.6054 13.6495 11.6408C13.2971 11.5393 13.4674 11.2986 13.575 11.0515C14.4799 8.97434 13.7685 6.29843 12.0822 4.82159ZM11.748 12.2435C11.4838 13.076 10.8062 13.9724 10.8172 14.7541C10.8198 14.9381 10.9147 15.4138 10.5479 15.268C10.5082 15.2522 10.1745 14.4874 10.0225 14.2967C9.99801 15.4187 9.62667 15.5475 9.31083 16.3835C8.99166 17.2282 9.17859 18.2607 9.80517 18.919C10.477 19.6248 11.8758 19.6912 12.8059 19.5489C13.4598 19.4386 13.9423 19.2652 14.3385 18.7064C14.7274 18.158 14.8251 17.4514 14.6159 16.8151C14.4986 16.9511 13.5125 17.9055 13.5077 17.2602C13.5069 17.1468 13.608 17.0326 13.6438 16.9256C13.8027 16.4505 13.7841 15.755 13.5272 15.3048C13.4004 15.4735 12.8478 16.1403 12.593 15.9423C12.4423 15.8251 12.549 15.6094 12.5777 15.4607C12.76 14.5151 12.4067 13.5021 11.982 12.6702C11.9264 12.5613 11.8244 12.33 11.748 12.2435Z" fill="#113A58"/>
</svg>
