<svg width="24" height="24" viewBox="0 0 24 24" fill="none" xmlns="http://www.w3.org/2000/svg">
<path d="M8 10L8.5 8.5H9.5L11.5 8L13.5 7.5H15L15.5 8L16 10L15 12L13 13.5L12 14L11 13.5L9 12L8 10Z" fill="#A9BDD3"/>
<path d="M11.1431 13.8882C9.79373 13.4395 8.39207 12.0801 8.08242 10.6832C7.77092 9.27819 8.41772 6.3267 8.77025 4.96082C8.83372 4.71486 8.91019 4.04529 9.16119 4.00616C9.39376 3.99406 9.63288 4.00588 9.8663 4.00594L13.6378 4.00604C13.8679 4.00607 14.7109 3.98086 14.8729 4.03322C14.9803 4.12937 15.0064 4.31179 15.0461 4.4432C15.4919 5.91661 15.8239 7.45795 15.9544 8.99187C15.9808 9.30213 16.0091 9.61604 15.9972 9.92766C15.9259 11.8071 14.5194 13.1773 12.8687 13.8882C12.6526 14.4064 12.6944 16.0762 12.6926 16.7403L12.692 17.5857C12.692 17.8125 12.6586 18.2695 12.7533 18.4699C12.8705 18.718 14.145 18.6654 14.4522 18.7639C14.9815 18.9337 15.3826 19.6493 14.7669 19.949C14.5076 20.0362 14.1498 19.9852 13.8778 19.9853L9.71714 19.9852C9.36195 19.9847 8.89997 20.0135 8.85428 19.5286C8.79605 18.9113 9.58723 18.7208 10.0462 18.6853L10.6376 18.6385C11.4143 18.572 11.26 18.4776 11.2874 17.7759C11.3381 16.4779 11.3138 15.1766 11.1431 13.8882ZM9.38188 4.46731C9.08785 5.56393 8.82216 6.66032 8.64651 7.78418C8.62892 7.89657 8.60621 8.01358 8.60374 8.12749C9.4368 8.33884 10.236 8.28847 11.0251 7.93745C11.939 7.53098 12.4493 7.06787 13.5878 7.11987C14.1566 7.1158 14.7138 7.22754 15.2611 7.37457C15.1758 6.60972 14.8902 5.53864 14.6777 4.80951C14.6446 4.6958 14.6038 4.58204 14.5752 4.46731H9.38188ZM13.3788 7.58658C12.8325 7.6309 12.1458 7.7717 11.7032 8.12749C12.2209 8.20881 12.5357 8.43884 12.9806 8.64507C13.2618 8.77537 13.5582 8.86514 13.8605 8.92922C14.3748 9.0229 14.9603 9.0353 15.4657 8.88606C15.4769 8.5553 15.4105 8.20761 15.3601 7.88111C14.7148 7.70243 14.0542 7.54749 13.3788 7.58658ZM10.8982 8.51427C10.6922 8.52334 10.5061 8.6145 10.3044 8.65003C9.71448 8.75398 9.12961 8.70966 8.54779 8.5787C8.39288 9.75912 8.34742 10.8393 9.115 11.8448C9.92692 12.9084 11.49 13.9701 12.8687 13.3729C14.2812 12.7082 15.5136 11.5141 15.5424 9.86295C15.5453 9.69942 15.5334 9.53588 15.5373 9.37226C14.5086 9.52406 13.7727 9.49411 12.8082 9.07114C12.0946 8.75817 11.8051 8.47088 10.8982 8.51427ZM11.6295 14.034C11.6359 14.1879 11.6637 14.3424 11.6798 14.4957C11.7794 15.4432 11.7613 16.3995 11.7632 17.3506C11.7638 17.6661 11.7848 18.2184 11.7047 18.5229C11.4327 19.5561 9.51527 18.7869 9.3149 19.4798C9.3171 19.4925 9.31448 19.5028 9.32689 19.5095C9.37957 19.538 12.0389 19.5209 12.3529 19.5209L14.3702 19.5212C14.4333 19.5214 14.6747 19.563 14.613 19.4266C14.4241 19.0092 13.2006 19.2248 12.6842 18.9816C12.1895 18.7486 12.2543 18.2309 12.2335 17.7751C12.1788 16.5801 12.2157 15.2084 12.3529 14.034C12.1408 14.0334 11.8287 14.0228 11.6295 14.034Z" fill="#113A58"/>
<path d="M11.7421 13C11.5484 12.9942 11.2377 12.8148 11.0669 12.7157C10.1399 12.1779 9.4369 11.3726 9.15738 10.3211C9.07405 10.0078 8.80803 9.11275 9.2408 9C9.61555 9.00088 9.54363 9.38451 9.57274 9.64394C9.70236 10.7994 10.4783 11.8603 11.5305 12.3509C11.8404 12.4954 12.2906 12.7865 11.7421 13Z" fill="#113A58"/>
</svg>
