<svg width="24" height="24" viewBox="0 0 24 24" fill="none" xmlns="http://www.w3.org/2000/svg">
<path d="M4.5 12.5L4 12L4.5 10L5.5 8L8 5.5L10.5 4.5H13.5L16 5.5L18 7.5L19.5 9.5L20 12L19.5 12.5H19L18.5 10.5L17.5 8.5L16 7L13 6H10.5L8 7L6 9.5L5.5 11L5 12.5H4.5Z" fill="#A9BDD3"/>
<path d="M8 13.5H7H6.5V14.5V19L7 19.5H8L8.5 19V14.5L8 13.5Z" fill="#A9BDD3"/>
<path d="M17.5 13.5H16H15.5V19L16 19.5H17L17.5 19V13.5Z" fill="#A9BDD3"/>
<path d="M4.32559 12.7272C3.65356 12.3523 3.82701 11.6529 3.93806 11.0303C4.6072 7.27892 8.02926 4.3743 11.8491 4.36089C12.368 4.30236 13.2097 4.42626 13.7085 4.52903C17.0211 5.21145 19.7107 8.07448 20.1123 11.4408C20.1773 11.9857 20.199 12.3986 19.6823 12.7272C19.6696 13.3264 19.8663 14.6173 19.7352 15.0396C19.6783 15.2232 19.5462 15.3918 19.4649 15.5679C19.9048 16.9681 19.0534 18.3963 17.7425 18.9348C17.5702 19.6739 16.6585 19.7336 16.0515 19.6054C15.2689 19.44 15.382 18.6398 15.3828 18.0388L15.3827 14.6428C15.3825 13.9876 15.2552 13.1501 16.1497 12.9904C16.8539 12.8648 17.6027 12.9629 17.7425 13.7931C18.3329 13.9742 18.9189 14.3718 19.1976 14.9362C19.1981 14.2149 19.1852 13.506 19.1382 12.7861C18.3319 12.6554 18.4536 11.8906 18.3411 11.3186C17.7511 8.31917 15.1253 6.1114 12.0498 6.10423C11.6113 6.07109 11.1465 6.14187 10.7179 6.22882C8.12475 6.75457 6.06487 8.86535 5.63807 11.4771C5.5335 12.117 5.62167 12.6319 4.84298 12.7861C4.87256 13.081 4.82404 13.3857 4.81584 13.6816C4.80436 14.0989 4.81373 14.5187 4.81406 14.9362C5.12231 14.3507 5.64239 13.9726 6.25181 13.7479C6.39271 12.9496 7.14937 12.88 7.8209 12.9776C8.79215 13.1186 8.63981 14.0816 8.63986 14.7791V18.0263C8.64046 18.6335 8.74884 19.3264 8.02832 19.5879C7.36087 19.8301 6.51511 19.6826 6.25181 18.9348C4.95628 18.4846 4.14383 16.8905 4.5648 15.5679C4.25738 15.166 4.26283 14.9715 4.26451 14.5071C4.26645 13.9689 4.35466 13.2339 4.32644 12.7403L4.32559 12.7272ZM11.5939 4.89748C11.1972 4.9399 10.8095 4.97656 10.4184 5.05962C7.37109 5.70687 4.92318 8.22626 4.4377 11.3132C4.39759 11.5682 4.25797 12.0189 4.51053 12.2082C4.71567 12.3619 4.995 12.2167 5.04248 11.9829C5.07703 11.8131 5.07778 11.6226 5.1 11.4492C5.46136 8.62939 7.80056 6.3064 10.5458 5.70654C11.1782 5.56835 11.7465 5.55748 12.3896 5.5586C12.7699 5.59929 13.1469 5.63749 13.5209 5.7206C16.1806 6.31198 18.3488 8.4672 18.8616 11.1554C18.9117 11.4181 18.9139 11.686 18.9579 11.9478C19.0286 12.3684 19.6016 12.3638 19.6147 11.929C19.6211 11.7126 19.5593 11.4103 19.5227 11.1914C18.8908 7.40815 15.4139 4.70642 11.5939 4.89748ZM7.12307 13.5111C6.61129 13.5665 6.78501 14.441 6.78543 14.8382L6.78571 18.1111C6.78515 18.452 6.65489 19.0255 7.08707 19.0959C7.24659 19.1219 7.62337 19.122 7.7812 19.0887C8.26218 19.0323 8.09662 18.1791 8.09667 17.8087L8.09686 14.5304C8.09681 14.1896 8.21151 13.5741 7.73831 13.5031C7.63162 13.4871 7.22686 13.4871 7.12307 13.5111ZM16.2633 13.5111C15.7174 13.6336 15.9127 14.6532 15.9133 15.1218L15.9131 18.3534C15.9132 19.2068 16.0176 19.0941 16.8467 19.0887C17.3967 19.015 17.194 18.0766 17.194 17.6082L17.1936 14.2781C17.1932 13.4396 17.1754 13.5048 16.2633 13.5111ZM6.25181 14.3565C4.9177 14.7302 4.62127 16.7649 5.5545 17.8084C5.74865 18.0254 5.98167 18.2208 6.25181 18.3344L6.25167 15.9024C6.25172 15.3943 6.24646 14.8858 6.25832 14.3779L6.26709 14.3728L6.25181 14.3565ZM17.7425 14.3565V18.3344C18.0247 18.1648 18.2808 17.9962 18.496 17.7424C19.4032 16.6279 19.1207 14.8925 17.7425 14.3565Z" fill="#113A58"/>
</svg>
