<svg width="24" height="24" viewBox="0 0 24 24" fill="none" xmlns="http://www.w3.org/2000/svg">
<path d="M8 16V5.5L8.5 5H9.5L10 6H13L13.5 5H14.5L15 5.5V16.5L14.5 17H8.5L8 16Z" fill="#A9BDD3"/>
<path d="M7.08653 8.20091C7.00429 7.82197 6.99365 7.56839 7.02853 7.17119C7.03893 7.05276 7.07108 6.93578 7.07365 6.81687C7.08366 6.35389 7.02008 5.51824 7.11657 5.09938C7.26366 4.46069 7.81651 4.03022 8.43969 4.00969C8.90628 3.98791 9.37762 4.00964 9.84471 4.00967L14.0398 4.00922C14.6274 4.00922 15.1107 3.96055 15.5678 4.43246C15.9517 4.82874 15.9995 5.19484 16 5.72991L15.9997 18.239C15.9995 19.3096 15.5662 19.9997 14.4719 19.9996L9.0351 20C8.22641 20.0001 7.41167 20.0014 7.12495 18.9708C7.03687 18.6541 7.0726 18.1155 7.07293 17.7686L7.07281 11.2732C7.07188 10.7578 6.98468 10.2579 7.02559 9.73884C7.04819 9.45162 7.13589 9.68073 7.02984 9.33302C6.98498 9.18599 6.98098 8.40737 7.08653 8.20091ZM8.34446 4.4184C7.35561 4.56377 7.46865 5.56541 7.46894 6.30488L7.46814 18.1596C7.46798 18.3522 7.45384 18.5596 7.48224 18.7499C7.61927 19.6672 8.41032 19.5894 9.05185 19.5891L14.6833 19.5889C15.748 19.3966 15.6034 18.4613 15.6033 17.6326L15.6034 5.94408C15.6034 5.73491 15.6158 5.50926 15.581 5.30307C15.4094 4.2866 14.4498 4.41893 13.7371 4.41881L8.73984 4.41785C8.60929 4.41759 8.47429 4.40955 8.34446 4.4184Z" fill="#000B35"/>
<path d="M14.906 16.7039C14.6311 17.1158 13.7816 16.9778 13.3351 16.9778L9.49663 16.9775C9.17833 16.9775 8.85417 16.9911 8.53649 16.9758C7.87613 16.9439 8.01119 16.2254 8.01173 15.7458L8.01158 6.07455C8.01119 5.61613 7.9135 5.1815 8.45952 5.01433C8.67116 5.01146 9.55963 4.98896 9.72122 5.04397C10.0139 5.14363 9.92233 5.5132 10.149 5.61629C10.2706 5.67162 12.399 5.65873 12.728 5.63568C12.9521 5.61999 12.9622 5.4232 13.0346 5.24581C13.1714 4.91078 13.6399 5.01564 13.9196 5.01523C14.984 5.01371 14.9866 5.12967 14.9866 6.12113L14.9872 15.6514C14.9874 15.9694 15.0474 16.4195 14.906 16.7039ZM8.53571 5.4106C8.47333 5.43556 8.42261 5.45828 8.37537 5.50978C8.3671 5.8856 8.37529 6.26349 8.37533 6.63952L8.37521 16.2714C8.37498 16.3488 8.35126 16.5112 8.41134 16.5665C8.49151 16.6404 9.15632 16.604 9.28069 16.604L13.9946 16.604C14.5058 16.6039 14.6334 16.7004 14.6186 16.1013L14.6186 6.04528C14.6185 5.39661 14.6849 5.40925 14.0579 5.40978L13.3737 5.4106C13.2495 5.98971 12.8927 6.02682 12.4096 6.02634L10.7656 6.02605C10.1839 6.02605 9.81267 6.10878 9.60481 5.4106H8.53571Z" fill="#000B35"/>
<path d="M11.5772 18.9989C10.8718 19.0362 10.7929 18.1077 11.4516 18C12.1043 17.9993 12.2092 18.8477 11.5772 18.9989Z" fill="#000B35"/>
</svg>
