<svg width="24" height="24" viewBox="0 0 24 24" fill="none" xmlns="http://www.w3.org/2000/svg">
<path d="M7.5 13.5V8.5L9.5 7.5L12 6.5L15.5 4.5V17.5L11.5 15L7.5 13.5Z" fill="#A9BDD3"/>
<path d="M3.12009 14.0156C2.75655 14.0175 2.4456 14.031 2.10036 13.8832C0.812674 13.3318 1.01163 12.1823 1.01041 11.0235L1.00958 10.1147C1.00916 9.10072 1.272 8.09747 2.44711 7.9782C2.81337 7.94102 3.20201 7.96748 3.57102 7.96743L7.0352 7.96765C7.78304 7.9687 7.88936 7.86732 8.60638 7.60563C10.8442 6.78867 13.085 5.92541 14.9849 4.40729C15.1453 4.27906 15.3145 4.08145 15.4998 4.0003L15.5142 4.00002C15.9071 3.99654 15.8197 4.40486 15.8198 4.69014L15.8194 8.03676C18.4513 8.40121 18.9899 12.8069 15.8194 13.6332L15.8192 16.5749C15.8192 16.8584 15.9046 17.6626 15.7045 17.7995C15.4788 17.954 15.2162 17.6833 15.0402 17.5553C13.3538 16.3288 10.9199 15.229 8.99406 14.5178C8.5044 14.337 7.99997 14.1408 7.49447 14.0156C7.2202 14.4111 6.43392 15.3675 6.27926 15.7302C6.31611 16.3494 7.07634 18.4662 7.27934 19.1354C7.36448 19.3976 7.55319 19.8467 7.18356 19.9642C7.01534 20.0178 5.7618 20.0041 5.55043 19.9696C4.80031 19.847 4.62961 19.2787 4.45202 18.6274C4.03098 17.0834 3.54422 15.5593 3.12009 14.0156ZM15.2088 5.04752C14.9712 5.20276 14.7488 5.38214 14.5157 5.54439C12.9125 6.66006 11.0624 7.39133 9.25494 8.05295L8.34164 8.39022C8.21737 8.43524 8.09114 8.49137 7.96444 8.52728V13.491C8.73213 13.6816 9.67625 14.0941 10.4122 14.3945C11.8088 14.9925 13.1955 15.632 14.4968 16.4351C14.7348 16.582 14.9622 16.7462 15.2088 16.8775L15.2091 6.57034C15.209 6.06822 15.193 5.56235 15.2231 5.06133L15.2088 5.04752ZM2.61911 8.60131C1.70361 8.69196 1.60776 9.38711 1.6086 10.1347L1.61022 11.0486C1.61099 11.8467 1.4269 13.1535 2.48519 13.3489C2.80576 13.408 3.41445 13.375 3.75888 13.375L6.35847 13.3745H7.36051V8.60131H2.61911ZM15.8194 8.67368V12.9779C16.1944 12.8662 16.5389 12.6577 16.8057 12.3585C17.9082 11.1006 17.4167 9.16304 15.8194 8.67368ZM3.75861 14.0156C3.83353 14.3533 3.93985 14.6857 4.03648 15.0172L4.94449 18.1527C5.18143 18.9994 5.11175 19.3629 6.0797 19.3629C6.29684 19.3629 6.51414 19.364 6.73128 19.3611C6.62464 19.1032 6.55014 18.8328 6.46855 18.5655L6.12179 17.4303C5.77 16.2866 5.40948 15.15 5.03117 14.0156H3.75861ZM5.75555 14.0156C5.56637 14.042 5.94346 14.8466 6.00838 15.0068C6.09892 14.8824 6.19031 14.7585 6.27926 14.6328L6.73128 14.0156H5.75555Z" fill="#113A58"/>
<path d="M19.2813 8.9967C19.0154 9.0401 18.9104 8.64571 19.0878 8.35805C19.3085 8.00024 20.5449 6.10988 20.7074 6.00094C20.8888 5.98443 21.059 6.18745 20.9802 6.48806C20.9421 6.63352 19.4441 8.90066 19.2813 8.9967Z" fill="#113A58"/>
<path d="M3.74662 9.9853C3.44413 9.98869 2.47072 10.0363 2.23797 9.93971C1.87174 9.78769 1.96518 9.17614 2.26822 9.01252C2.47276 8.99665 3.66162 8.98626 3.77474 9.04314C4.12348 9.21844 4.03033 9.80001 3.74662 9.9853Z" fill="#113A58"/>
<path d="M3.74688 10.9722C3.52434 11.0197 2.63253 10.9949 2.38649 10.9808C1.92164 10.9542 1.86729 10.2349 2.27144 10.0249C2.47492 9.97847 2.94388 10.0256 3.17273 10.0268C3.41417 10.0279 3.83188 9.87987 3.96435 10.2681C4.06373 10.5594 3.94383 10.8533 3.74688 10.9722Z" fill="#113A58"/>
<path d="M21.7354 10.9845C21.5909 10.9974 21.4438 10.9858 21.2991 10.9855L20.4521 10.9849C20.0875 10.9847 19.6495 11.0231 19.2947 10.9783C18.9145 10.9302 18.8923 10.1239 19.2859 10.0428C19.9666 9.99737 20.9886 9.97493 21.6679 10.0434C22.0948 10.0864 22.1023 10.8384 21.7354 10.9845Z" fill="#113A58"/>
<path d="M2.63893 12.9638C2.46369 12.9817 2.24085 13.0869 2.10253 12.7109C1.979 12.375 1.96029 11.678 2.08382 11.3224C2.2297 10.9026 2.49673 11.0126 2.68406 11.014L3.37184 11.0209C4.26769 10.8717 4.04781 12.7548 3.67726 12.939C3.43857 13.0574 2.90378 12.9676 2.63893 12.9638Z" fill="#113A58"/>
<path d="M20.8162 15.9885C20.728 16.0173 20.6542 15.9929 20.5858 15.9037C20.4287 15.6983 19.0541 13.6236 19.0159 13.488C18.9584 13.2843 19.067 13.0917 19.1789 13.0058C19.2702 12.9878 19.3316 13.0095 19.4027 13.1024C19.5649 13.3145 20.9522 15.4048 20.9808 15.4941C21.0463 15.6988 20.9325 15.9081 20.8162 15.9885Z" fill="#113A58"/>
</svg>
