<svg width="24" height="24" viewBox="0 0 24 24" fill="none" xmlns="http://www.w3.org/2000/svg">
<rect x="8" y="7" width="7" height="10" fill="#A9BDD3"/>
<path d="M19.7549 19.9621C19.2413 19.948 17.7122 18.5821 17.1651 18.577L6.47894 18.5778C5.7166 18.5764 5.84074 18.4587 5.21875 18.845L3.91835 19.664C3.72283 19.7893 3.20785 20.2515 3.0657 19.819C2.99961 19.6181 3.03388 18.7951 3.03394 18.5234L3.03459 5.30696C3.03459 4.92475 2.86989 4.13181 3.25926 4C3.60872 4.00433 5.33755 5.40036 5.66961 5.42245C6.15114 5.45447 6.66726 5.42911 7.15233 5.42916H14.7608C15.1151 5.42916 17.2099 5.48177 17.386 5.40269C17.6608 5.27921 17.907 5.09501 18.1601 4.93263L19.073 4.35785C19.2637 4.23642 19.4605 4.08058 19.6743 4.00716L19.6953 4C19.8191 4.0414 19.892 4.08402 19.9705 4.19213C19.9851 4.3256 19.9727 4.4659 19.9719 4.6002L19.9702 18.6447C19.9701 19.0186 20.1182 19.8045 19.7549 19.9621ZM3.58149 4.82702V19.2017C4.04272 18.9663 4.47207 18.6535 4.90465 18.3679L6.62038 17.2512C6.89678 17.0707 7.29181 16.7669 7.57662 16.6431V12.1996H6.62169V13.1701L6.62251 14.8641C6.62262 15.093 6.70208 15.7161 6.53771 15.8902C6.39839 16.0379 6.17313 15.9404 6.06552 15.8039C6.057 15.2551 6.06541 14.705 6.06552 14.1559L6.06574 9.05801C6.06579 8.83075 6.00418 8.25619 6.14661 8.10729C6.54688 7.689 6.6217 8.46569 6.62164 8.70305L6.62169 11.6418H7.57662V7.36918C7.19146 7.1382 6.82377 6.87292 6.44658 6.6284L4.11857 5.13869C3.94504 5.0272 3.7726 4.9051 3.58149 4.82702ZM19.4189 4.82702C19.1235 4.9722 18.8525 5.17032 18.5738 5.34592L16.055 6.93508C15.8379 7.07227 15.607 7.20574 15.4083 7.36918C15.3936 8.79273 15.4083 10.2181 15.4083 11.6418C15.7348 11.6464 16.0618 11.6426 16.3884 11.6418L16.3872 8.62852C16.387 8.49194 16.3778 8.34809 16.3952 8.21284C16.4229 7.99879 16.6775 7.88474 16.8345 8.05495C17.0233 8.25963 16.9315 9.3815 16.9315 9.68551L16.9307 15.3976C16.932 15.5596 16.9811 15.7802 16.8401 15.8987C16.6344 16.0719 16.4107 15.8986 16.3882 15.6697C16.3657 15.4405 16.3899 15.1894 16.3892 14.9574L16.3884 13.2163V12.1996C16.0629 12.1993 15.7332 12.1875 15.4083 12.1996L15.4078 16.157C15.4077 16.318 15.3998 16.4826 15.4083 16.6431C15.6422 16.7703 15.8628 16.9213 16.0859 17.0669L17.1469 17.7613C17.8995 18.249 18.6752 18.712 19.4189 19.2017L19.4187 6.82064C19.4187 6.59327 19.4472 4.89095 19.4189 4.82702ZM6.47223 5.98452C6.6134 6.0913 7.83615 6.88097 7.92013 6.90439C8.07522 6.94762 8.96569 6.92037 9.17683 6.92042L14.1711 6.92015C15.2142 6.91981 14.9837 6.95411 15.9099 6.35569C16.1061 6.22904 16.3005 6.09724 16.5048 5.98452H6.47223ZM8.13427 7.48111V16.5071H14.8603V7.48111H8.13427ZM7.94556 17.0661C7.68494 17.1835 6.69777 17.8438 6.47223 18.0212H15.0053L15.9926 18.0204C16.1628 18.0202 16.335 18.0125 16.5048 18.0212C16.3356 17.8954 15.2634 17.1428 15.0805 17.0864C14.9191 17.0366 13.8799 17.0657 13.6534 17.0657L8.5878 17.0658C8.37563 17.0658 8.15675 17.0528 7.94556 17.0661Z" fill="#000B35"/>
</svg>
