<svg width="24" height="24" viewBox="0 0 24 24" fill="none" xmlns="http://www.w3.org/2000/svg">
<path d="M6.5 9L5.5 8.5H5L4.5 9.5V11L5 12.5L6 13.5H7L7.5 12.5V10.5L6.5 9Z" fill="#A9BDD3"/>
<path d="M7.5 7.5V6L8 4.5H9L10 5L10.5 7V8V9L9.5 9.5H8.5L8 8.5L7.5 7.5Z" fill="#A9BDD3"/>
<path d="M13.5 7L14 5L15 4.5H16L16.5 6V7.5L16 9L15.5 9.5H14.5L14 9L13.5 8.5V7Z" fill="#A9BDD3"/>
<path d="M17.5 9L18.5 8.5H19L19.5 9V10V11L19 12.5L18 13.5H17L16.5 13V12V11L17 10L17.5 9Z" fill="#A9BDD3"/>
<path d="M13 10.5H12H11L10 11.5L9 13.5L7.5 15L6.5 16V17.5L7.5 19L9 19.5H10.5L12 19H13.5L15 19.5H16L16.5 19L17.5 17V15.5L15.5 14L15 13L14.5 11.5L13 10.5Z" fill="#A9BDD3"/>
<path d="M14.8752 10C12.58 9.888 12.5312 6.063 13.9738 4.57424C14.2951 4.24272 14.7019 4.00066 15.1565 4.01196C15.4384 3.95973 15.738 4.08605 15.9736 4.24536C17.3269 5.16028 17.1953 7.57077 16.4236 8.86594C15.9995 9.57792 15.6028 9.82843 14.8752 10ZM15.1565 4.61057C13.291 4.79201 12.8861 9.30402 14.8752 9.38122C16.9611 8.95941 16.8113 4.45748 15.1565 4.61057Z" fill="#113A58"/>
<path d="M9.35371 9.99278C7.90178 10.1387 7.03201 8.03793 7.001 6.69515C6.97499 5.56739 7.45379 4.04221 8.67126 4.0079C10.4756 3.80442 11.7671 7.58415 10.4798 9.30604C10.187 9.69765 9.8154 9.94133 9.35371 9.99278ZM8.67126 4.60619C6.70287 4.93569 7.60269 9.64677 9.35371 9.37433C11.3379 9.00847 10.3392 4.43994 8.67126 4.60619Z" fill="#113A58"/>
<path d="M17.5476 13.9999C17.0862 14.0055 16.6788 13.7815 16.3786 13.31C15.2009 11.4599 17.0161 7.87844 18.4698 8.06169C18.7438 7.87015 19.2154 8.16598 19.4283 8.38593C20.8266 9.83009 19.4516 13.7452 17.5476 13.9999ZM18.5508 8.79974C17.0117 8.58859 15.6166 13.0212 17.4625 13.2605C18.5562 13.1777 19.478 11.3194 19.4133 9.98807C19.3856 9.42014 19.0783 8.61663 18.5508 8.79974Z" fill="#113A58"/>
<path d="M6.83132 13.9776C4.23995 14.4104 2.83328 8.44073 5.23716 8.01776C7.41073 7.64748 9.30385 13.18 6.83132 13.9776ZM5.29742 8.77086C3.69072 9.1288 4.95919 13.4801 6.7011 13.2254C8.33965 12.7884 6.94848 8.58112 5.29742 8.77086Z" fill="#113A58"/>
<path d="M11.9368 19.1865C11.0063 19.3942 10.3628 19.9281 9.29954 19.9936C7.56487 20.1005 6.09088 18.8512 6.0047 17.1725C5.92579 15.6358 6.85034 14.6435 8.02092 13.7966C8.65725 13.3362 8.8947 12.8536 9.21804 12.1798C9.75102 11.069 10.8045 10.0921 12.1324 10.0336C12.6507 9.91452 13.3736 10.1297 13.8108 10.401C15.7095 11.5791 14.5903 13.5354 16.3278 14.3653C16.5688 14.4804 16.8195 14.5832 17.0457 14.7245C18.6021 15.6961 17.9749 17.7828 17.1358 19.022C16.4372 20.0538 15.4067 20.2054 14.2733 19.7481C13.4211 19.4042 12.91 18.9921 11.9368 19.1865ZM12.3751 10.6401C11.2876 10.6346 10.3407 11.3512 9.87547 12.2655C9.40636 13.1876 9.29447 13.605 8.41282 14.2797C7.46267 15.0069 6.63707 15.7142 6.63856 17.0264C6.64005 18.3476 7.75104 19.3947 9.12052 19.3838C10.0759 19.3762 10.8008 18.8332 11.688 18.5992C12.1162 18.5068 12.5947 18.4742 13.0257 18.5707C14.3012 18.8562 15.6041 20.1824 16.624 18.6288C17.0497 17.9802 17.5017 16.8651 17.3241 16.1036C17.1498 15.3571 16.5022 15.1621 15.8921 14.8395C14.7159 14.2176 14.7205 13.4019 14.4517 12.3514C14.1973 11.357 13.4697 10.626 12.3751 10.6401Z" fill="#113A58"/>
</svg>
