<svg width="24" height="24" viewBox="0 0 24 24" fill="none" xmlns="http://www.w3.org/2000/svg">
<path d="M11.7485 5.33199C11.7486 4.94762 11.5769 4.14033 11.9616 4.00236C12.3518 3.96792 12.2887 4.31772 12.2873 4.57661L12.2859 5.26784C12.5019 5.09831 13.2148 4.31467 13.4064 4.29C13.6004 4.26502 13.7947 4.50434 13.6783 4.66537C13.4113 5.03452 12.6466 5.62486 12.2859 6.00279L12.2861 6.99261C12.2865 7.15701 12.2984 7.32371 12.2859 7.48763C12.5484 7.2647 12.7963 7.00709 13.0434 6.768C13.1753 6.64033 13.4947 6.2511 13.7146 6.43947C14.0432 6.72087 13.4582 7.09973 13.2691 7.27507C12.9374 7.58274 12.5999 7.89223 12.2859 8.21567V10.1859C12.8248 10.2416 13.2476 10.5045 13.5849 10.8948C14.1569 10.6484 14.8983 10.1866 15.4637 9.88036C15.53 9.71774 15.5712 9.54071 15.619 9.37245L15.8653 8.4949C15.9083 8.33962 15.9388 8.03368 16.085 7.92926C16.2554 7.80757 16.5275 7.94552 16.5116 8.14895C16.488 8.45051 16.2259 9.17084 16.1419 9.51408C16.5832 9.25001 17.054 9.02735 17.5077 8.78232C17.6229 8.41356 17.7499 8.04684 17.8693 7.67905C17.9276 7.4991 18.0537 6.78461 18.3753 6.8706C18.7397 6.96798 18.5318 7.35645 18.4591 7.57401L18.1789 8.42264C18.4669 8.28252 19.2874 7.69185 19.5065 7.9484C19.8126 8.30671 18.7871 8.63449 18.5084 8.8377L18.4942 8.84815L19.1806 9.0254C19.4716 9.09881 19.9113 9.09872 20 9.42522C19.8996 9.82574 19.5165 9.64522 19.2247 9.57114C18.7542 9.45171 18.2754 9.2854 17.7955 9.21076C17.3691 9.40905 16.7593 9.71968 16.3671 9.96932C16.7037 10.0789 17.0567 10.1572 17.3989 10.2518C17.6462 10.3201 17.85 10.3225 17.9263 10.584C17.819 10.9781 17.4389 10.7879 17.1575 10.711C16.6905 10.5834 16.2032 10.4144 15.7316 10.3171C15.1294 10.5837 14.4587 11.0079 13.8626 11.3186C14.0559 11.8481 14.0258 12.2064 13.8626 12.7354C14.2068 12.9766 15.3348 13.5995 15.7316 13.7559L17.0391 13.3772C17.2408 13.3195 17.7041 13.0851 17.8644 13.3062C18.1005 13.6317 17.6349 13.732 17.4174 13.7928C17.1155 13.8771 16.6312 13.9834 16.3671 14.1213C16.8655 14.3199 17.3017 14.6529 17.7955 14.8677L17.842 14.8549C18.2501 14.7439 18.6647 14.6506 19.0763 14.5515C19.2992 14.4977 19.9043 14.2495 19.99 14.6027C20.0714 14.9379 19.4716 14.9706 19.2541 15.0233C19.0004 15.0848 18.7497 15.1625 18.4942 15.2157C18.6888 15.3398 19.5248 15.7185 19.5667 15.8881C19.5996 16.0212 19.4784 16.1769 19.3375 16.1962C19.1787 16.2179 18.3378 15.7266 18.1789 15.6102C18.2112 15.9894 18.6844 16.8476 18.5407 17.0568C18.4032 17.2568 18.1292 17.1736 18.0461 16.9811C17.898 16.638 17.5592 15.606 17.5077 15.3005C17.0406 15.0353 16.5605 14.7826 16.0838 14.5328C16.1563 14.8016 16.5614 15.8858 16.4194 16.0824C16.2861 16.2669 16.0571 16.1796 15.9767 15.9958C15.8257 15.651 15.5069 14.5216 15.4637 14.2048C15.2509 14.0719 15.0168 13.9578 14.7963 13.8359L13.5849 13.1621C13.2828 13.5641 12.8039 13.8324 12.2859 13.8968L12.2857 15.2575C12.2855 15.4608 12.2641 15.6769 12.2859 15.8783C12.6203 16.1955 12.9683 16.5003 13.3083 16.8122C13.4841 16.9734 13.9076 17.223 13.7219 17.4928C13.4989 17.8166 13.2168 17.4492 13.0663 17.3032C12.8789 17.1214 12.5098 16.7601 12.3 16.6212L12.2859 16.612L12.2856 17.5434C12.2849 17.7085 12.274 17.8745 12.2859 18.0393C12.3858 18.1137 12.4736 18.2069 12.5634 18.2922L13.0286 18.7327C13.1721 18.8669 13.6792 19.2417 13.7044 19.422C13.7324 19.6231 13.5003 19.795 13.3056 19.6841C13.0398 19.5325 12.5813 19.0047 12.2859 18.7784L12.2878 19.4141C12.2885 19.6362 12.3404 20.055 11.9616 19.994C11.6769 19.8953 11.7457 19.6511 11.747 19.4173L11.7485 18.7784C11.5212 18.9411 10.78 19.7463 10.5693 19.716C10.4219 19.6948 10.2991 19.5459 10.3274 19.4045C10.3581 19.2507 11.6195 18.127 11.7485 18.0393V16.612C11.5702 16.769 10.6912 17.6658 10.5127 17.6803C10.3678 17.6919 10.2366 17.5629 10.2358 17.4292C10.2345 17.2174 11.5195 16.1036 11.7485 15.8783V13.8968L11.7195 13.8919C11.2047 13.8006 10.7656 13.5749 10.4633 13.1621C9.86344 13.3972 9.12593 13.905 8.5139 14.2048C8.41821 14.6415 8.17248 15.5664 7.99277 15.9873C7.91494 16.1696 7.6664 16.2857 7.51664 16.0911C7.38669 15.9223 7.7835 14.8815 7.83144 14.6111C7.456 14.8078 6.86112 15.1052 6.52566 15.3485C6.38039 15.6772 6.22857 16.1659 6.11578 16.5107C6.04703 16.7208 5.973 17.2479 5.61963 17.147C5.2858 17.0518 5.482 16.6986 5.55375 16.4952C5.65126 16.2189 5.75829 15.9423 5.84427 15.6628C5.61082 15.7656 4.87991 16.2497 4.68553 16.2248C4.52913 16.2047 4.44308 16.0531 4.47725 15.9137C4.5222 15.7301 5.27953 15.3785 5.49686 15.2498C5.24307 15.1827 4.26201 14.9385 4.11405 14.8462C4.03839 14.7991 4.02055 14.7236 4.00097 14.6458C4.1182 14.1839 4.69268 14.5053 5.04607 14.604L6.22463 14.9256C6.69177 14.6452 7.17831 14.3963 7.64887 14.1213C7.32264 14.0132 6.98263 13.9242 6.6518 13.8284C6.44988 13.7699 5.99343 13.7082 6.08223 13.4099C6.18944 13.0497 6.76562 13.3319 6.99776 13.3988L8.26282 13.7559L9.51921 13.0793C9.73973 12.9618 9.96054 12.8356 10.1904 12.7354C10.0396 12.2849 9.97431 11.8045 10.1904 11.3612C9.74859 11.1497 9.31458 10.8921 8.88868 10.6518C8.68629 10.5376 8.481 10.4012 8.26282 10.3171C7.835 10.3751 7.04734 10.6394 6.61061 10.7685C6.40129 10.8304 6.1535 10.884 6.08068 10.6285C5.98766 10.3018 6.69608 10.2191 6.90475 10.1666C7.15376 10.1041 7.4001 10.0328 7.64887 9.96932C7.1814 9.73501 6.69885 9.40869 6.22463 9.21076C6.00144 9.23778 5.78326 9.30618 5.56663 9.36226L4.73427 9.57393C4.59375 9.61004 4.44619 9.65873 4.30274 9.67915C4.08655 9.70994 3.92304 9.47869 4.03774 9.29869C4.13267 9.1498 5.3463 8.90078 5.56677 8.84815C5.37554 8.7514 4.48989 8.36403 4.44097 8.16791C4.40588 8.02726 4.50222 7.87335 4.65625 7.85072C4.81688 7.82715 5.6507 8.29302 5.84427 8.42264C5.76949 8.21181 5.38721 7.16715 5.43041 7.03075C5.47648 6.88549 5.65698 6.82054 5.79962 6.87552C5.99886 6.95229 6.03007 7.28956 6.08213 7.45648C6.20495 7.85005 6.36319 8.41693 6.52566 8.78232C6.97841 9.02416 7.42371 9.27716 7.87951 9.51408C7.82197 9.28044 7.4358 8.19994 7.49695 8.04759C7.57198 7.86055 7.86682 7.82941 7.96203 8.01335C8.04366 8.1711 8.08171 8.36421 8.13335 8.53344L8.37247 9.30139C8.43063 9.49388 8.48025 9.69288 8.55373 9.88036C8.92818 10.1736 10.0189 10.6999 10.4633 10.9286C10.7634 10.5188 11.2203 10.2465 11.7485 10.1859V8.21567C11.4061 7.92576 11.0538 7.56608 10.7324 7.25119C10.5853 7.1069 10.2511 6.8846 10.2308 6.66872C10.2132 6.48058 10.4396 6.32406 10.6131 6.42976C10.9042 6.60697 11.4529 7.23166 11.7485 7.48763C11.7559 7.32367 11.7492 7.15834 11.7491 6.99416L11.7485 6.06481C11.3822 5.69242 10.6117 5.06044 10.3328 4.6786C10.1625 4.44532 10.4856 4.17363 10.7177 4.35226C10.9901 4.56191 11.5096 5.08626 11.7485 5.33199ZM11.7485 10.7039C11.4233 10.7717 11.1325 10.8942 10.9324 11.1574C11.0365 11.2171 11.1399 11.2703 11.2503 11.3186C11.4052 11.4264 11.5702 11.5199 11.7485 11.5889C11.7485 11.4886 11.7669 10.7427 11.7485 10.7039ZM12.2859 10.7039C12.2784 10.973 12.2703 11.3251 12.2859 11.5889C12.4815 11.51 12.6513 11.3934 12.8519 11.3186C12.925 11.242 13.0137 11.2037 13.1089 11.1574C12.9211 10.913 12.6108 10.7231 12.2859 10.7039ZM13.3783 11.5889C13.0916 11.7361 12.8022 11.8803 12.5251 12.0433L12.9012 12.2426C13.0582 12.3261 13.2135 12.4124 13.3783 12.4814C13.4758 12.187 13.5207 11.8923 13.3922 11.5994L13.3783 11.5889ZM10.6731 11.5889C10.5768 11.8951 10.5692 12.1753 10.6731 12.4814C10.8383 12.3927 10.9977 12.2972 11.1798 12.2426C11.2797 12.1655 11.3916 12.1057 11.5021 12.0433C11.2323 11.8831 10.9498 11.7383 10.6731 11.5889ZM12.2859 12.4814L12.2841 13.0894C12.2838 13.1846 12.2741 13.2878 12.2859 13.3821C12.4957 13.341 12.6767 13.2807 12.8519 13.1621C12.9471 13.0896 13.0298 13.0078 13.1089 12.92C12.8347 12.7738 12.5585 12.6303 12.2859 12.4814ZM11.7485 12.4814C11.4889 12.6279 11.1696 12.7506 10.9324 12.92C10.9995 13.017 11.0876 13.0869 11.1798 13.1621C11.3668 13.2651 11.5404 13.3284 11.7485 13.3821C11.7485 13.2925 11.7629 12.5041 11.7485 12.4814Z" fill="#000B35"/>
</svg>
