<svg width="24" height="24" viewBox="0 0 24 24" fill="none" xmlns="http://www.w3.org/2000/svg">
<path d="M9 16L7 15L9 13.5L10.5 12.5L11.5 11.5V10V7.5H17.5V11.5L16 12L14.5 13.5V15L15 16.5L10.5 19.5L10 17.5L9 16Z" fill="#A9BDD3"/>
<path d="M11.5 6V4.5L17 4L18 4.5V5.5L11.5 6Z" fill="#A9BDD3"/>
<path d="M11.3437 7.70918C10.8871 7.37084 10.9766 6.8381 10.978 6.33949L10.9763 5.27871C10.974 4.07135 11.409 4.00785 12.4843 3.96038L15.5711 3.82969C16.0428 3.80737 16.5154 3.77681 16.9877 3.77617C17.5433 3.65798 18.1397 4.02148 18.2182 4.60226C18.2585 4.90052 18.2315 5.30932 18.231 5.62057C18.2301 6.22474 18.4131 7.17602 17.8283 7.52402L17.8281 9.9859C17.8282 10.4132 17.8192 10.8427 17.8297 11.2698C17.8691 12.8579 18.2707 14.3324 16.7871 15.5361C16.3744 15.8711 15.8433 16.1623 15.4027 16.4821C14.3807 17.2237 13.3398 17.9343 12.3015 18.6532L11.2664 19.3667C11.0299 19.5295 10.7941 19.7016 10.5443 19.8438C9.53325 20.4192 8.27944 20.3578 7.3064 19.7208C6.36562 19.1507 5.78719 18.0533 5.78545 16.9625C5.78273 15.2236 6.83067 14.4625 8.14519 13.7033L9.52711 12.8964C11.2638 11.867 11.3438 11.3349 11.344 9.41632L11.3437 7.70918ZM16.9582 4.29063C15.7209 4.36427 14.4812 4.40183 13.2432 4.46192L12.3456 4.50099C11.3083 4.54292 11.5149 4.78287 11.5188 5.70504H12.2742C12.9602 5.59619 14.1538 5.6261 14.8925 5.59957L16.6636 5.53446C17.0038 5.52119 17.3603 5.48294 17.6998 5.51027C17.6988 4.79768 17.9132 4.26177 16.9582 4.29063ZM17.2269 6.03401C16.9087 6.06143 16.5945 6.0626 16.2754 6.06223C16.4036 6.29224 16.6943 6.57673 16.7482 6.81204C16.6287 7.33957 16.2887 7.01749 16.0897 6.73802C15.9435 6.5328 15.799 6.31137 15.6291 6.12565C15.2947 6.08688 14.9236 6.12569 14.5832 6.12565C14.7216 6.37165 15.3385 6.91657 14.9173 7.13458C14.5849 7.30662 14.1536 6.44238 13.9245 6.17623C13.5804 6.1698 13.2382 6.20013 12.8943 6.19943L12.9046 6.21551C13.0589 6.45349 13.5978 6.91643 13.219 7.17293C12.8804 7.30052 12.7054 6.86768 12.5473 6.6401C12.4459 6.49413 12.3367 6.36748 12.2742 6.19943C12.0217 6.24227 11.7744 6.25207 11.5188 6.24921C11.5168 6.85268 11.3371 7.36901 12.0989 7.34299L16.6689 7.15755C17.7756 7.12502 17.7045 7.26532 17.6998 6.03401H17.2269ZM16.9582 7.67585C16.6036 7.70909 16.2463 7.70894 15.8907 7.72437L12.6198 7.85473C12.375 7.86321 12.1288 7.87854 11.884 7.87348L11.8842 9.56712C11.8845 10.7863 11.9004 11.6387 10.9329 12.5969C10.435 13.09 8.94708 13.8765 8.26645 14.2663C7.93964 14.4534 7.58733 14.6358 7.3064 14.8902C8.50903 15.2776 9.39872 16.0114 10.0874 17.0622C10.4447 17.6479 10.7322 18.3238 10.8233 19.0089L13.4645 17.1812C13.8701 16.9003 14.2882 16.6348 14.6869 16.3443C13.6953 14.8666 14.2403 12.7512 15.6977 11.776C16.1354 11.4831 16.7714 11.2475 17.2997 11.2647V7.67585C17.1863 7.67529 17.0714 7.67065 16.9582 7.67585ZM17.2269 11.7935C15.223 12.0321 14.211 14.0837 15.0318 15.86L15.1072 16.0035C15.3275 15.8877 15.5292 15.7208 15.7372 15.5835C17.3073 14.5472 17.4758 13.9267 17.3483 12.1245C17.3374 11.9692 17.3962 11.764 17.2269 11.7935ZM6.85908 15.3308C5.40492 17.5582 7.29783 20.2625 9.72103 19.5956C9.93234 19.5305 10.1231 19.4486 10.3158 19.3399C10.1159 17.4806 8.72344 15.7336 6.85908 15.3308Z" fill="#000B35"/>
</svg>
