<svg width="20" height="20" viewBox="0 0 20 20" fill="none" xmlns="http://www.w3.org/2000/svg">
<path d="M2.5 10C6.25 10 10 6.25 10 2.5C10 6.25 13.75 10 17.5 10C13.75 10 10 13.75 10 17.5C10 13.75 6.25 10 2.5 10Z" fill="#EDE09A" stroke="#113A58" stroke-width="1.25" stroke-linejoin="round"/>
<path d="M1.66669 16.25C2.36113 16.25 3.75002 14.861 3.75002 14.1666C3.75002 14.861 5.13891 16.25 5.83335 16.25C5.13891 16.25 3.75002 17.6389 3.75002 18.3333C3.75002 17.6389 2.36113 16.25 1.66669 16.25Z" fill="#EDE09A" stroke="#113A58" stroke-width="1.25" stroke-linejoin="round"/>
<path d="M13.3333 4.16663C14.1666 4.16663 15.8333 2.49996 15.8333 1.66663C15.8333 2.49996 17.5 4.16663 18.3333 4.16663C17.5 4.16663 15.8333 5.83329 15.8333 6.66663C15.8333 5.83329 14.1666 4.16663 13.3333 4.16663Z" fill="#EDE09A" stroke="#113A58" stroke-width="1.25" stroke-linejoin="round"/>
</svg>
