<svg width="20" height="20" viewBox="0 0 20 20" fill="none" xmlns="http://www.w3.org/2000/svg">
<path d="M7.91666 6.25004C8.32626 6.67146 9.41649 8.33337 9.99999 8.33337M9.99999 8.33337C10.5835 8.33337 11.6737 6.67146 12.0833 6.25004M9.99999 8.33337V3.33337" stroke="#113A58" stroke-width="1.5" stroke-linecap="round" stroke-linejoin="round"/>
<path d="M15.3027 8.86304L14.1242 10.0416" stroke="#113A58" stroke-width="1.5" stroke-linecap="round"/>
<path d="M2.5 14.1666H4.16667" stroke="#113A58" stroke-width="1.5" stroke-linecap="round"/>
<path d="M4.69714 8.86304L5.87565 10.0415" stroke="#113A58" stroke-width="1.5" stroke-linecap="round"/>
<path d="M17.5 14.1666H15.8333" stroke="#113A58" stroke-width="1.5" stroke-linecap="round"/>
<path d="M17.5 16.6666H2.5" stroke="#113A58" stroke-width="1.5" stroke-linecap="round"/>
<path d="M13.3333 14.1667C13.3333 12.3258 11.8409 10.8334 9.99999 10.8334C8.15904 10.8334 6.66666 12.3258 6.66666 14.1667" fill="#EDE09A"/>
<path d="M13.3333 14.1667C13.3333 12.3258 11.8409 10.8334 9.99999 10.8334C8.15904 10.8334 6.66666 12.3258 6.66666 14.1667" stroke="#113A58" stroke-width="1.5" stroke-linecap="round"/>
</svg>
